<svg width="24" height="52" viewBox="0 0 45 61" fill="none" xmlns="http://www.w3.org/2000/svg">
<path d="M3.56517 45.5236C5.08938 46.4036 6.26861 46.7611 7.10286 46.5961C7.91712 46.4658 8.65425 45.829 9.31425 44.6859L14.8942 35.021C16.1542 32.8387 17.5073 31.4952 18.9533 30.9906C20.3993 30.486 22.1976 30.5312 24.3482 31.1262C22.7669 29.7052 21.8259 28.215 21.5252 26.6558C21.2046 25.1312 21.6742 23.2777 22.9342 21.0954L28.5142 11.4305C29.1742 10.2874 29.3571 9.33062 29.0629 8.56028C28.754 7.73531 27.8547 6.89282 26.3652 6.03282L29.6652 0.317054C32.7136 2.07705 34.8965 3.77614 36.2139 5.41432C37.5513 7.01786 38.1891 8.63317 38.1273 10.2602C38.0855 11.8527 37.4946 13.6362 36.3546 15.6107L30.9846 24.9118C30.0846 26.4707 29.697 27.7019 29.822 28.6054C29.9123 29.4889 30.6157 30.3107 31.9321 31.0707L28.0621 37.7737C26.7457 37.0137 25.6823 36.8155 24.872 37.179C24.007 37.5572 23.1246 38.5257 22.2246 40.0846L16.8546 49.3857C15.6946 51.3949 14.4355 52.8157 13.0773 53.6481C11.6991 54.5152 9.98131 54.7705 7.9239 54.414C5.86649 54.0576 3.31358 52.9993 0.265172 51.2393L3.56517 45.5236Z" fill="white"/>
</svg>
