<svg width="231" height="56" viewBox="0 0 231 56" fill="none" xmlns="http://www.w3.org/2000/svg">
<path d="M24.04 14.44L27.04 21.1L8.08 29.02L27.04 36.7L24.04 43.6L0.0400001 33.22V24.88L24.04 14.44ZM59.6533 0.0399973L67.9333 1.9L53.8333 55.72L45.4933 53.8L59.6533 0.0399973ZM113.577 4.48V49H105.177L104.697 45.28C102.457 48.44 99.4369 50.02 95.6369 50.02C91.6769 50.02 88.6569 48.5 86.5769 45.46C84.5369 42.42 83.5169 38.26 83.5169 32.98C83.5169 29.74 84.0569 26.84 85.1369 24.28C86.2169 21.72 87.7369 19.72 89.6969 18.28C91.6969 16.84 93.9769 16.12 96.5369 16.12C99.5769 16.12 102.097 17.12 104.097 19.12V3.46L113.577 4.48ZM98.5769 43.06C100.777 43.06 102.617 41.86 104.097 39.46V25.72C103.337 24.8 102.557 24.12 101.757 23.68C100.997 23.24 100.117 23.02 99.1169 23.02C97.3569 23.02 95.9569 23.84 94.9169 25.48C93.8769 27.12 93.3569 29.64 93.3569 33.04C93.3569 36.76 93.7969 39.36 94.6769 40.84C95.5969 42.32 96.8969 43.06 98.5769 43.06ZM142.473 17.14V49H132.993V17.14H142.473ZM137.673 0.339997C139.313 0.339997 140.653 0.859998 141.693 1.9C142.773 2.9 143.313 4.18 143.313 5.74C143.313 7.3 142.773 8.6 141.693 9.64C140.653 10.64 139.313 11.14 137.673 11.14C136.033 11.14 134.693 10.64 133.653 9.64C132.613 8.6 132.093 7.3 132.093 5.74C132.093 4.18 132.613 2.9 133.653 1.9C134.693 0.859998 136.033 0.339997 137.673 0.339997ZM189.347 17.14L179.327 49H168.107L157.847 17.14H168.167L173.807 41.8L179.687 17.14H189.347ZM206.009 14.44L230.009 24.88V33.22L206.009 43.6L203.009 36.7L221.969 29.02L203.009 21.1L206.009 14.44Z" fill="black"/>
</svg>
