<svg width="190" height="51" viewBox="0 0 190 51" fill="none" xmlns="http://www.w3.org/2000/svg">
<path d="M24.04 14.44L27.04 21.1L8.08 29.02L27.04 36.7L24.04 43.6L0.0400001 33.22V24.88L24.04 14.44ZM73.3933 4.48V49H64.9933L64.5133 45.28C62.2733 48.44 59.2533 50.02 55.4533 50.02C51.4933 50.02 48.4733 48.5 46.3933 45.46C44.3533 42.42 43.3333 38.26 43.3333 32.98C43.3333 29.74 43.8733 26.84 44.9533 24.28C46.0333 21.72 47.5533 19.72 49.5133 18.28C51.5133 16.84 53.7933 16.12 56.3533 16.12C59.3933 16.12 61.9133 17.12 63.9133 19.12V3.46L73.3933 4.48ZM58.3933 43.06C60.5933 43.06 62.4333 41.86 63.9133 39.46V25.72C63.1533 24.8 62.3733 24.12 61.5733 23.68C60.8133 23.24 59.9333 23.02 58.9333 23.02C57.1733 23.02 55.7733 23.84 54.7333 25.48C53.6933 27.12 53.1733 29.64 53.1733 33.04C53.1733 36.76 53.6133 39.36 54.4933 40.84C55.4133 42.32 56.7133 43.06 58.3933 43.06ZM102.29 17.14V49H92.8098V17.14H102.29ZM97.4898 0.339997C99.1298 0.339997 100.47 0.859998 101.51 1.9C102.59 2.9 103.13 4.18 103.13 5.74C103.13 7.3 102.59 8.6 101.51 9.64C100.47 10.64 99.1298 11.14 97.4898 11.14C95.8498 11.14 94.5098 10.64 93.4698 9.64C92.4298 8.6 91.9098 7.3 91.9098 5.74C91.9098 4.18 92.4298 2.9 93.4698 1.9C94.5098 0.859998 95.8498 0.339997 97.4898 0.339997ZM149.163 17.14L139.143 49H127.923L117.663 17.14H127.983L133.623 41.8L139.503 17.14H149.163ZM165.825 14.44L189.825 24.88V33.22L165.825 43.6L162.825 36.7L181.785 29.02L162.825 21.1L165.825 14.44Z" fill="black"/>
</svg>
