<svg width="24" height="52" viewBox="0 0 45 61" fill="none" xmlns="http://www.w3.org/2000/svg">
<path d="M41.3845 14.8453C39.8603 13.9653 38.6811 13.6077 37.8468 13.7727C37.0326 13.9031 36.2955 14.5398 35.6355 15.6829L30.0555 25.3478C28.7955 27.5302 27.4424 28.8737 25.9964 29.3783C24.5504 29.8828 22.7521 29.8376 20.6015 29.2426C22.1828 30.6636 23.1238 32.1538 23.4245 33.713C23.7451 35.2376 23.2755 37.0911 22.0155 39.2735L16.4355 48.9383C15.7755 50.0815 15.5926 51.0382 15.8868 51.8086C16.1957 52.6335 17.095 53.476 18.5845 54.336L15.2845 60.0518C12.2361 58.2918 10.0532 56.5927 8.73581 54.9545C7.3984 53.351 6.7606 51.7357 6.82242 50.1086C6.86424 48.5162 7.45515 46.7327 8.59515 44.7581L13.9652 35.457C14.8652 33.8982 15.2527 32.667 15.1277 31.7634C15.0374 30.8799 14.334 30.0581 13.0177 29.2981L16.8877 22.5951C18.204 23.3551 19.2674 23.5533 20.0777 23.1898C20.9427 22.8116 21.8252 21.8431 22.7252 20.2843L28.0952 10.9831C29.2552 8.97396 30.5142 7.55315 31.8724 6.72072C33.2506 5.85364 34.9684 5.59833 37.0258 5.95479C39.0832 6.31126 41.6361 7.36949 44.6845 9.12949L41.3845 14.8453Z" fill="#121212"/>
</svg>
