<svg width="287" height="51" viewBox="0 0 287 51" fill="none" xmlns="http://www.w3.org/2000/svg">
<path d="M19.832 12.352L22.232 17.68L7.06402 24.016L22.232 30.16L19.832 35.68L0.632015 27.376V20.704L19.832 12.352ZM54.3226 22.384C56.5306 22.8 58.3226 23.616 59.6986 24.832C61.1066 26.048 61.8106 27.872 61.8106 30.304C61.8106 33.856 60.5306 36.368 57.9706 37.84C55.4426 39.28 51.8906 40 47.3146 40H36.6106V6.736H46.0186C50.6906 6.736 54.2586 7.408 56.7226 8.752C59.1866 10.064 60.4186 12.224 60.4186 15.232C60.4186 17.184 59.8266 18.768 58.6426 19.984C57.4906 21.168 56.0506 21.968 54.3226 22.384ZM44.4826 12.304V20.032H47.4106C50.7386 20.032 52.4026 18.688 52.4026 16C52.4026 14.656 51.9546 13.712 51.0586 13.168C50.1626 12.592 48.7386 12.304 46.7866 12.304H44.4826ZM47.3626 34.288C49.4426 34.288 51.0106 33.984 52.0666 33.376C53.1546 32.736 53.6986 31.568 53.6986 29.872C53.6986 26.8 51.7786 25.264 47.9386 25.264H44.4826V34.288H47.3626ZM89.5156 13.792C90.4436 13.792 91.2916 13.904 92.0596 14.128L90.8596 21.472C89.8996 21.248 89.1316 21.136 88.5556 21.136C87.0516 21.136 85.8996 21.664 85.0996 22.72C84.3316 23.744 83.7236 25.296 83.2756 27.376V40H75.6916V14.512H82.3156L82.9396 19.456C83.5156 17.696 84.3796 16.32 85.5316 15.328C86.7156 14.304 88.0436 13.792 89.5156 13.792ZM118.621 40.048C117.597 43.344 115.917 45.872 113.581 47.632C111.277 49.424 108.173 50.432 104.269 50.656L103.453 45.328C105.885 45.008 107.677 44.464 108.829 43.696C110.013 42.928 110.957 41.696 111.661 40H109.069L101.293 14.512H109.357L113.917 35.152L118.909 14.512H126.733L118.621 40.048ZM158.179 32.608C158.179 33.568 158.307 34.272 158.563 34.72C158.851 35.168 159.299 35.504 159.907 35.728L158.323 40.672C156.755 40.544 155.475 40.208 154.483 39.664C153.491 39.088 152.723 38.192 152.179 36.976C150.515 39.536 147.955 40.816 144.499 40.816C141.971 40.816 139.955 40.08 138.451 38.608C136.947 37.136 136.195 35.216 136.195 32.848C136.195 30.064 137.219 27.936 139.267 26.464C141.315 24.992 144.275 24.256 148.147 24.256H150.739V23.152C150.739 21.648 150.419 20.624 149.779 20.08C149.139 19.504 148.019 19.216 146.419 19.216C145.587 19.216 144.579 19.344 143.395 19.6C142.211 19.824 140.995 20.144 139.747 20.56L138.019 15.568C139.619 14.96 141.251 14.496 142.915 14.176C144.611 13.856 146.179 13.696 147.619 13.696C151.267 13.696 153.939 14.448 155.635 15.952C157.331 17.456 158.179 19.712 158.179 22.72V32.608ZM146.707 35.392C148.435 35.392 149.779 34.576 150.739 32.944V28.432H148.867C147.139 28.432 145.843 28.736 144.979 29.344C144.147 29.952 143.731 30.896 143.731 32.176C143.731 33.2 143.987 34 144.499 34.576C145.043 35.12 145.779 35.392 146.707 35.392ZM188.748 13.696C190.956 13.696 192.684 14.368 193.932 15.712C195.18 17.056 195.804 18.944 195.804 21.376V40H188.22V22.672C188.22 21.392 188.012 20.512 187.596 20.032C187.212 19.52 186.62 19.264 185.82 19.264C184.284 19.264 182.812 20.368 181.404 22.576V40H173.82V14.512H180.444L180.972 17.536C182.06 16.256 183.228 15.296 184.476 14.656C185.756 14.016 187.18 13.696 188.748 13.696ZM243.97 0.831998L250.594 2.32L239.314 45.376L232.642 43.84L243.97 0.831998ZM267.707 12.352L286.907 20.704V27.376L267.707 35.68L265.307 30.16L280.475 24.016L265.307 17.68L267.707 12.352Z" fill="#121212"/>
</svg>
